<svg version="1.1" id="Layer_1" xmlns="http://www.w3.org/2000/svg" xmlns:xlink="http://www.w3.org/1999/xlink" x="0px" y="0px"
	 width="100%" viewBox="0 0 1080 1080" enable-background="new 0 0 1080 1080" xml:space="preserve">
<path fill="#000000" opacity="1.000000" stroke="none" 
	d="
M1081.000000,382.000000 
	C1081.000000,615.306396 1081.000000,848.112793 1081.000000,1080.959595 
	C721.068542,1080.959595 361.137115,1080.959595 1.102827,1080.959595 
	C1.102827,721.110229 1.102827,361.220367 1.102827,1.165269 
	C360.999939,1.165269 720.999939,1.165269 1081.000000,1.165269 
	C1081.000000,127.863014 1081.000000,254.681503 1081.000000,382.000000 
M83.070038,535.948853 
	C83.379677,555.210754 83.150330,574.501343 84.174080,593.725220 
	C84.955338,608.395691 87.153610,623.003601 89.025543,637.600281 
	C92.089485,661.491821 98.163773,684.716431 105.929382,707.450317 
	C110.683327,721.367493 116.412086,734.958801 121.910583,748.612915 
	C131.649048,772.795715 143.721130,795.830811 158.189224,817.466492 
	C168.589355,833.018860 179.782272,848.099365 191.457748,862.722778 
	C201.508469,875.311096 212.484009,887.198486 223.551514,898.922974 
	C229.901627,905.650024 237.068802,911.651550 244.187866,917.596802 
	C256.870514,928.188416 269.254883,939.257385 282.732971,948.751099 
	C310.063110,968.002075 338.998474,984.603210 369.722809,997.998901 
	C395.748413,1009.345947 422.469696,1018.668701 450.149017,1024.845459 
	C467.432373,1028.702393 484.990234,1031.541504 502.553162,1033.869507 
	C518.167358,1035.939209 533.937744,1037.127319 549.678345,1037.842896 
	C560.402100,1038.330566 571.207336,1037.572388 581.950562,1036.937988 
	C594.250671,1036.211670 606.588379,1035.502930 618.790588,1033.886963 
	C635.243103,1031.707886 651.809204,1029.617432 667.910645,1025.755371 
	C687.047729,1021.165161 705.843506,1015.044250 724.590759,1008.979431 
	C734.886047,1005.648804 744.961121,1001.470398 754.807861,996.959045 
	C769.689148,990.141052 784.865417,983.668640 798.859924,975.285706 
	C818.198547,963.701599 836.890991,950.945679 855.210449,937.787109 
	C866.885437,929.401306 877.898804,919.914185 888.277100,909.950317 
	C900.566406,898.151794 912.338928,885.726318 923.438843,872.802490 
	C934.696167,859.695251 945.373108,846.014038 955.391968,831.934998 
	C973.975891,805.819885 989.834595,778.005554 1001.767517,748.249451 
	C1010.370300,726.797607 1018.238831,704.950195 1024.740479,682.782227 
	C1033.237793,653.809631 1037.522095,623.880676 1039.829346,593.797546 
	C1041.045288,577.941895 1040.557373,561.955566 1041.013916,545.101746 
	C1040.676880,532.499023 1040.783691,519.864929 1039.895508,507.301178 
	C1038.655640,489.760376 1037.367188,472.169739 1034.805786,454.791168 
	C1032.406250,438.511780 1028.766846,422.372833 1024.884888,406.363220 
	C1017.236755,374.821350 1005.216125,344.776794 990.789124,315.830750 
	C979.059753,292.297119 966.116821,269.269714 949.823425,248.490463 
	C935.938965,230.783508 921.662354,213.338074 906.711975,196.530624 
	C898.058533,186.802383 888.117432,178.096252 878.062317,169.767380 
	C863.448059,157.662079 848.568909,145.808853 833.153748,134.753067 
	C806.736145,115.806244 778.320923,100.102501 748.081543,88.254974 
	C725.655823,79.468796 702.678894,71.874512 679.516052,65.260139 
	C663.896118,60.799702 647.549011,58.833462 631.483704,55.997963 
	C610.975037,52.378212 590.282654,50.547665 569.452209,51.049068 
	C551.405762,51.483467 533.357239,52.109352 515.333252,53.086117 
	C505.502167,53.618881 495.597412,54.407112 485.943329,56.230965 
	C469.445007,59.347832 453.080688,63.211838 436.726440,67.045166 
	C405.703552,74.316727 376.539948,86.721123 348.084747,100.658043 
	C324.135132,112.388176 301.031067,125.867798 279.893311,142.190521 
	C262.347687,155.739380 245.471741,170.201889 228.855484,184.889114 
	C219.927811,192.780319 212.023254,201.860397 203.933365,210.658127 
	C197.472565,217.684235 190.971283,224.755249 185.304092,232.410507 
	C175.785629,245.268112 166.329849,258.243591 157.925552,271.835907 
	C148.039673,287.824402 138.177917,304.006622 130.352798,321.045013 
	C120.635330,342.203674 112.311264,364.083160 104.726341,386.113007 
	C99.331367,401.782318 95.447060,418.073120 92.183067,434.346191 
	C88.936371,450.533081 86.591011,466.982239 85.164772,483.430359 
	C83.679848,500.555328 83.766434,517.816528 83.070038,535.948853 
z"/>
<path fill="#B651E1" opacity="1.000000" stroke="none" 
	d="
M1040.838745,546.028198 
	C1040.557373,561.955566 1041.045288,577.941895 1039.829346,593.797546 
	C1037.522095,623.880676 1033.237793,653.809631 1024.740479,682.782227 
	C1018.238831,704.950195 1010.370300,726.797607 1001.767517,748.249451 
	C989.834595,778.005554 973.975891,805.819885 955.391968,831.934998 
	C945.373108,846.014038 934.696167,859.695251 923.438843,872.802490 
	C912.338928,885.726318 900.566406,898.151794 888.277100,909.950317 
	C877.898804,919.914185 866.885437,929.401306 855.210449,937.787109 
	C836.890991,950.945679 818.198547,963.701599 798.859924,975.285706 
	C784.865417,983.668640 769.689148,990.141052 754.807861,996.959045 
	C744.961121,1001.470398 734.886047,1005.648804 724.590759,1008.979431 
	C705.843506,1015.044250 687.047729,1021.165161 667.910645,1025.755371 
	C651.809204,1029.617432 635.243103,1031.707886 618.790588,1033.886963 
	C606.588379,1035.502930 594.250671,1036.211670 581.950562,1036.937988 
	C571.207336,1037.572388 560.402100,1038.330566 549.678345,1037.842896 
	C533.937744,1037.127319 518.167358,1035.939209 502.553162,1033.869507 
	C484.990234,1031.541504 467.432373,1028.702393 450.149017,1024.845459 
	C422.469696,1018.668701 395.748413,1009.345947 369.722809,997.998901 
	C338.998474,984.603210 310.063110,968.002075 282.732971,948.751099 
	C269.254883,939.257385 256.870514,928.188416 244.187866,917.596802 
	C237.068802,911.651550 229.901627,905.650024 223.551514,898.922974 
	C212.484009,887.198486 201.508469,875.311096 191.457748,862.722778 
	C179.782272,848.099365 168.589355,833.018860 158.189224,817.466492 
	C143.721130,795.830811 131.649048,772.795715 121.910583,748.612915 
	C116.412086,734.958801 110.683327,721.367493 105.929382,707.450317 
	C98.163773,684.716431 92.089485,661.491821 89.025543,637.600281 
	C87.153610,623.003601 84.955338,608.395691 84.174080,593.725220 
	C83.150330,574.501343 83.379677,555.210754 83.287872,535.111450 
	C85.314606,517.080811 86.447525,499.784515 89.053345,482.713013 
	C98.634117,419.946625 121.009514,361.783600 153.993088,307.696991 
	C179.947525,265.136810 212.148621,227.847183 249.976486,195.316101 
	C292.249512,158.962311 339.712860,131.368393 391.459778,111.141594 
	C445.718628,89.932945 502.278351,80.307434 560.435547,80.105400 
	C574.382202,80.056946 588.346069,81.085197 602.279663,81.969902 
	C630.115051,83.737297 657.508362,88.563896 684.384155,95.806328 
	C721.505676,105.809769 757.072083,119.844299 790.920776,138.281158 
	C843.015991,166.656586 888.354797,203.305832 926.725464,248.457184 
	C955.919189,282.809845 979.438416,320.804810 998.062622,361.899139 
	C1021.695190,414.044250 1035.614380,468.547791 1039.123657,525.705933 
	C1039.540161,532.489502 1040.259644,539.254578 1040.838745,546.028198 
M147.136703,555.019104 
	C148.508331,575.927063 148.790253,596.975647 151.465927,617.715393 
	C158.173889,669.710205 175.591522,718.235474 201.371231,763.854614 
	C233.615631,820.913391 277.343781,867.338928 331.700317,903.584656 
	C394.471710,945.441528 463.814972,968.512756 539.169312,972.749756 
	C566.789917,974.302856 594.418701,972.877747 621.826294,968.751709 
	C668.859192,961.671021 713.426819,947.119141 755.515259,924.849060 
	C805.053040,898.637329 847.822449,864.207825 883.040344,820.574219 
	C927.212524,765.846497 956.368469,704.022522 968.901672,634.753113 
	C972.445740,615.165283 974.050110,595.187195 975.735291,575.319458 
	C976.530029,565.950012 975.413269,556.418396 975.064209,546.034058 
	C974.709717,539.773376 974.576477,533.490540 973.952698,527.256836 
	C972.796875,515.705505 971.547363,504.156708 969.988281,492.654114 
	C967.259033,472.516968 962.304321,452.884247 956.209717,433.508728 
	C948.006592,407.429932 936.968750,382.593597 923.932556,358.609436 
	C908.053833,329.395508 888.707458,302.601715 866.391113,278.038025 
	C849.827759,259.806671 831.509705,243.286240 811.805603,228.532211 
	C787.452454,210.297104 761.453735,194.634781 733.595398,182.202408 
	C707.205383,170.425339 680.047791,161.228897 651.810547,154.679520 
	C629.405212,149.482803 606.779724,146.680099 584.020508,145.268402 
	C567.346191,144.234131 550.516785,145.577499 533.760620,146.017792 
	C514.085205,146.534821 494.838470,150.041260 475.555420,153.830826 
	C445.468750,159.743515 416.785675,169.645157 389.108673,182.520828 
	C366.262390,193.149200 343.916473,204.853394 323.751404,220.122711 
	C308.390350,231.754318 292.990112,243.442673 278.628906,256.251251 
	C267.518555,266.160461 257.446167,277.390442 247.899002,288.854919 
	C236.447739,302.605865 225.218643,316.685394 215.387665,331.607117 
	C201.930222,352.033203 190.198807,373.530640 180.895996,396.286224 
	C170.085434,422.729858 161.277039,449.691101 155.795319,477.817993 
	C151.652222,499.076355 149.249893,520.455200 147.458984,542.726501 
	C147.357086,546.521362 147.255203,550.316223 147.136703,555.019104 
z"/>
<path fill="#8C20BA" opacity="1.000000" stroke="none" 
	d="
M1040.926270,545.564941 
	C1040.259644,539.254578 1039.540161,532.489502 1039.123657,525.705933 
	C1035.614380,468.547791 1021.695190,414.044250 998.062622,361.899139 
	C979.438416,320.804810 955.919189,282.809845 926.725464,248.457184 
	C888.354797,203.305832 843.015991,166.656586 790.920776,138.281158 
	C757.072083,119.844299 721.505676,105.809769 684.384155,95.806328 
	C657.508362,88.563896 630.115051,83.737297 602.279663,81.969902 
	C588.346069,81.085197 574.382202,80.056946 560.435547,80.105400 
	C502.278351,80.307434 445.718628,89.932945 391.459778,111.141594 
	C339.712860,131.368393 292.249512,158.962311 249.976486,195.316101 
	C212.148621,227.847183 179.947525,265.136810 153.993088,307.696991 
	C121.009514,361.783600 98.634117,419.946625 89.053345,482.713013 
	C86.447525,499.784515 85.314606,517.080811 83.335785,534.646057 
	C83.766434,517.816528 83.679848,500.555328 85.164772,483.430359 
	C86.591011,466.982239 88.936371,450.533081 92.183067,434.346191 
	C95.447060,418.073120 99.331367,401.782318 104.726341,386.113007 
	C112.311264,364.083160 120.635330,342.203674 130.352798,321.045013 
	C138.177917,304.006622 148.039673,287.824402 157.925552,271.835907 
	C166.329849,258.243591 175.785629,245.268112 185.304092,232.410507 
	C190.971283,224.755249 197.472565,217.684235 203.933365,210.658127 
	C212.023254,201.860397 219.927811,192.780319 228.855484,184.889114 
	C245.471741,170.201889 262.347687,155.739380 279.893311,142.190521 
	C301.031067,125.867798 324.135132,112.388176 348.084747,100.658043 
	C376.539948,86.721123 405.703552,74.316727 436.726440,67.045166 
	C453.080688,63.211838 469.445007,59.347832 485.943329,56.230965 
	C495.597412,54.407112 505.502167,53.618881 515.333252,53.086117 
	C533.357239,52.109352 551.405762,51.483467 569.452209,51.049068 
	C590.282654,50.547665 610.975037,52.378212 631.483704,55.997963 
	C647.549011,58.833462 663.896118,60.799702 679.516052,65.260139 
	C702.678894,71.874512 725.655823,79.468796 748.081543,88.254974 
	C778.320923,100.102501 806.736145,115.806244 833.153748,134.753067 
	C848.568909,145.808853 863.448059,157.662079 878.062317,169.767380 
	C888.117432,178.096252 898.058533,186.802383 906.711975,196.530624 
	C921.662354,213.338074 935.938965,230.783508 949.823425,248.490463 
	C966.116821,269.269714 979.059753,292.297119 990.789124,315.830750 
	C1005.216125,344.776794 1017.236755,374.821350 1024.884888,406.363220 
	C1028.766846,422.372833 1032.406250,438.511780 1034.805786,454.791168 
	C1037.367188,472.169739 1038.655640,489.760376 1039.895508,507.301178 
	C1040.783691,519.864929 1040.676880,532.499023 1040.926270,545.564941 
z"/>
<path fill="#000000" opacity="1.000000" stroke="none" 
	d="
M147.825729,542.002625 
	C149.249893,520.455200 151.652222,499.076355 155.795319,477.817993 
	C161.277039,449.691101 170.085434,422.729858 180.895996,396.286224 
	C190.198807,373.530640 201.930222,352.033203 215.387665,331.607117 
	C225.218643,316.685394 236.447739,302.605865 247.899002,288.854919 
	C257.446167,277.390442 267.518555,266.160461 278.628906,256.251251 
	C292.990112,243.442673 308.390350,231.754318 323.751404,220.122711 
	C343.916473,204.853394 366.262390,193.149200 389.108673,182.520828 
	C416.785675,169.645157 445.468750,159.743515 475.555420,153.830826 
	C494.838470,150.041260 514.085205,146.534821 533.760620,146.017792 
	C550.516785,145.577499 567.346191,144.234131 584.020508,145.268402 
	C606.779724,146.680099 629.405212,149.482803 651.810547,154.679520 
	C680.047791,161.228897 707.205383,170.425339 733.595398,182.202408 
	C761.453735,194.634781 787.452454,210.297104 811.805603,228.532211 
	C831.509705,243.286240 849.827759,259.806671 866.391113,278.038025 
	C888.707458,302.601715 908.053833,329.395508 923.932556,358.609436 
	C936.968750,382.593597 948.006592,407.429932 956.209717,433.508728 
	C962.304321,452.884247 967.259033,472.516968 969.988281,492.654114 
	C971.547363,504.156708 972.796875,515.705505 973.952698,527.256836 
	C974.576477,533.490540 974.709717,539.773376 975.025879,546.955566 
	C973.662598,561.953430 973.257874,576.193115 970.795105,590.067566 
	C967.178772,610.440857 962.935791,630.787109 957.409241,650.714905 
	C951.036072,673.695129 942.101624,695.857239 930.532410,716.822571 
	C923.677673,729.244507 917.313660,742.020386 909.447571,753.780029 
	C899.538818,768.593445 888.671753,782.810791 877.553406,796.755310 
	C869.437866,806.933838 860.600708,816.605652 851.428101,825.851440 
	C843.782410,833.557983 835.488098,840.708374 826.932617,847.404480 
	C813.942261,857.571533 800.890320,867.761047 787.119324,876.806580 
	C764.699036,891.533447 740.720947,903.424072 715.884277,913.665894 
	C681.808838,927.717346 646.376038,936.448120 609.921265,940.804077 
	C592.570801,942.877319 574.997009,943.412598 557.504700,943.838135 
	C547.651978,944.077820 537.710632,943.087097 527.895325,941.923950 
	C510.987579,939.920288 494.100983,937.637024 477.289642,934.945618 
	C454.631897,931.318176 432.710968,924.420715 411.727844,915.572144 
	C389.778290,906.316101 368.505829,895.237915 347.635010,883.694824 
	C321.339539,869.151550 298.061096,850.239502 276.251709,829.651733 
	C251.542191,806.326538 229.968216,780.364502 211.918045,751.484375 
	C195.815765,725.720825 182.409851,698.655823 172.019592,670.139221 
	C164.412491,649.261169 158.046463,627.977478 154.967697,605.896790 
	C152.704376,589.664429 150.979736,573.357178 148.977905,557.087830 
	C148.846817,556.022461 148.398331,554.996155 148.051392,553.496704 
	C147.945450,549.362000 147.885590,545.682312 147.825729,542.002625 
M360.841797,276.669098 
	C355.606903,280.215332 350.372009,283.761566 345.138947,287.306549 
	C350.203735,292.832825 355.030487,298.421875 360.194702,303.679565 
	C385.554077,329.497864 411.002594,355.228577 436.420715,380.989166 
	C459.866760,404.751221 483.318634,428.507507 506.759735,452.274414 
	C530.239380,476.080383 553.715942,499.889343 577.180481,523.710205 
	C597.786743,544.629456 618.361389,565.579773 638.973572,586.493103 
	C663.445618,611.322571 687.925537,636.144348 712.434753,660.937134 
	C731.583801,680.307739 750.638428,699.774841 769.998962,718.932373 
	C790.338501,739.058777 810.992249,758.867615 831.217529,778.532104 
	C835.243652,772.901672 840.353027,766.357361 844.809998,759.395325 
	C853.551453,745.740967 862.466248,732.150513 870.297607,717.974609 
	C877.257812,705.375610 883.637146,692.327637 888.860596,678.927368 
	C896.638000,658.975586 902.444092,638.324829 904.999573,616.965576 
	C907.254944,598.114990 909.257324,579.225952 910.866394,560.310913 
	C911.405334,553.975830 910.387390,547.508362 910.769897,540.571899 
	C911.648621,520.204346 909.723206,500.027374 907.155396,479.844482 
	C904.796448,461.303894 900.684692,443.214935 895.145081,425.407928 
	C887.286377,400.146240 876.082825,376.395416 862.881897,353.524078 
	C849.789734,330.841125 834.121643,310.051971 816.319641,290.925476 
	C795.686401,268.757080 772.476562,249.533188 746.399475,234.117584 
	C731.102417,225.074677 715.443726,216.374573 699.166748,209.322678 
	C675.951843,199.264893 651.832275,191.461441 626.614685,187.850433 
	C611.857910,185.737350 597.090942,182.727112 582.265503,182.297302 
	C562.093689,181.712479 541.783508,180.490479 521.656677,183.965683 
	C506.996918,186.496887 492.002258,187.668335 477.677734,191.429520 
	C454.337860,197.557831 431.199860,204.796600 410.273834,217.360977 
	C388.333160,230.534561 366.551086,243.972336 344.502869,257.414673 
	C350.613159,264.246307 355.888489,270.144379 360.841797,276.669098 
M762.690796,811.780579 
	C766.751465,809.041504 770.718994,806.149048 774.901917,803.611572 
	C778.289856,801.556335 778.700500,800.055542 775.637451,796.984070 
	C757.801758,779.099426 740.202759,760.979065 722.487366,742.974060 
	C699.741028,719.855774 676.955872,696.775696 654.195923,673.670776 
	C632.321045,651.464417 610.466919,629.237549 588.585510,607.037659 
	C565.188049,583.299561 541.760315,559.591248 518.362732,535.853271 
	C496.118469,513.285400 473.908936,490.683167 451.660400,468.119415 
	C427.006226,443.115997 402.375153,418.089417 377.639923,393.166290 
	C357.571869,372.945831 337.364380,352.863770 317.220459,332.718597 
	C316.278625,331.776672 315.336548,330.833923 314.424469,329.863464 
	C307.544525,322.542969 300.672028,315.215424 293.406433,307.473694 
	C287.360718,316.188904 281.951935,324.365875 276.161621,332.263062 
	C257.375427,357.884735 242.783981,385.744263 232.070877,415.581085 
	C223.383865,439.775116 216.739792,464.554047 215.055832,490.341095 
	C214.019806,506.206177 213.768753,522.122498 213.068420,538.945557 
	C212.737900,545.024780 211.991089,551.116211 212.168655,557.180542 
	C212.481201,567.855042 213.193451,578.526245 214.048309,589.174011 
	C214.820862,598.796448 215.335464,608.516174 217.168854,617.959045 
	C219.941833,632.241333 223.057877,646.533813 227.277695,660.442810 
	C236.828888,691.924805 250.938156,721.446838 269.407379,748.637756 
	C279.099640,762.906921 290.221252,776.245361 301.201599,789.589233 
	C315.076874,806.451233 331.259888,821.025940 348.659119,834.144714 
	C359.021545,841.957825 369.500519,849.894104 380.866943,856.035645 
	C400.090302,866.422485 419.629089,876.482300 439.830170,884.733337 
	C461.581543,893.617615 484.392822,899.685791 507.970123,902.049072 
	C524.593079,903.715271 541.188843,906.001831 557.854126,906.773621 
	C569.148254,907.296631 580.619141,906.284668 591.872925,904.864868 
	C608.630371,902.750793 625.413818,900.361450 641.916626,896.829468 
	C663.318237,892.249084 683.683777,884.339783 703.583069,875.158325 
	C729.092041,863.388550 752.132812,847.604980 775.420288,832.172546 
	C778.502563,830.129944 778.543518,828.806641 775.913940,826.304932 
	C771.117004,821.741089 766.657349,816.822754 762.690796,811.780579 
z"/>
<path fill="#8C20BA" opacity="1.000000" stroke="none" 
	d="
M148.097473,553.951721 
	C148.398331,554.996155 148.846817,556.022461 148.977905,557.087830 
	C150.979736,573.357178 152.704376,589.664429 154.967697,605.896790 
	C158.046463,627.977478 164.412491,649.261169 172.019592,670.139221 
	C182.409851,698.655823 195.815765,725.720825 211.918045,751.484375 
	C229.968216,780.364502 251.542191,806.326538 276.251709,829.651733 
	C298.061096,850.239502 321.339539,869.151550 347.635010,883.694824 
	C368.505829,895.237915 389.778290,906.316101 411.727844,915.572144 
	C432.710968,924.420715 454.631897,931.318176 477.289642,934.945618 
	C494.100983,937.637024 510.987579,939.920288 527.895325,941.923950 
	C537.710632,943.087097 547.651978,944.077820 557.504700,943.838135 
	C574.997009,943.412598 592.570801,942.877319 609.921265,940.804077 
	C646.376038,936.448120 681.808838,927.717346 715.884277,913.665894 
	C740.720947,903.424072 764.699036,891.533447 787.119324,876.806580 
	C800.890320,867.761047 813.942261,857.571533 826.932617,847.404480 
	C835.488098,840.708374 843.782410,833.557983 851.428101,825.851440 
	C860.600708,816.605652 869.437866,806.933838 877.553406,796.755310 
	C888.671753,782.810791 899.538818,768.593445 909.447571,753.780029 
	C917.313660,742.020386 923.677673,729.244507 930.532410,716.822571 
	C942.101624,695.857239 951.036072,673.695129 957.409241,650.714905 
	C962.935791,630.787109 967.178772,610.440857 970.795105,590.067566 
	C973.257874,576.193115 973.662598,561.953430 975.075073,547.418640 
	C975.413269,556.418396 976.530029,565.950012 975.735291,575.319458 
	C974.050110,595.187195 972.445740,615.165283 968.901672,634.753113 
	C956.368469,704.022522 927.212524,765.846497 883.040344,820.574219 
	C847.822449,864.207825 805.053040,898.637329 755.515259,924.849060 
	C713.426819,947.119141 668.859192,961.671021 621.826294,968.751709 
	C594.418701,972.877747 566.789917,974.302856 539.169312,972.749756 
	C463.814972,968.512756 394.471710,945.441528 331.700317,903.584656 
	C277.343781,867.338928 233.615631,820.913391 201.371231,763.854614 
	C175.591522,718.235474 158.173889,669.710205 151.465927,617.715393 
	C148.790253,596.975647 148.508331,575.927063 147.379196,554.517639 
	C147.621689,554.016174 148.097473,553.951721 148.097473,553.951721 
z"/>
<path fill="#A138CD" opacity="1.000000" stroke="none" 
	d="
M148.051392,553.496704 
	C148.097473,553.951721 147.621689,554.016174 147.387512,554.063599 
	C147.255203,550.316223 147.357086,546.521362 147.642365,542.364563 
	C147.885590,545.682312 147.945450,549.362000 148.051392,553.496704 
z"/>
<path fill="#B651E1" opacity="1.000000" stroke="none" 
	d="
M762.056946,812.052368 
	C766.657349,816.822754 771.117004,821.741089 775.913940,826.304932 
	C778.543518,828.806641 778.502563,830.129944 775.420288,832.172546 
	C752.132812,847.604980 729.092041,863.388550 703.583069,875.158325 
	C683.683777,884.339783 663.318237,892.249084 641.916626,896.829468 
	C625.413818,900.361450 608.630371,902.750793 591.872925,904.864868 
	C580.619141,906.284668 569.148254,907.296631 557.854126,906.773621 
	C541.188843,906.001831 524.593079,903.715271 507.970123,902.049072 
	C484.392822,899.685791 461.581543,893.617615 439.830170,884.733337 
	C419.629089,876.482300 400.090302,866.422485 380.866943,856.035645 
	C369.500519,849.894104 359.021545,841.957825 348.659119,834.144714 
	C331.259888,821.025940 315.076874,806.451233 301.201599,789.589233 
	C290.221252,776.245361 279.099640,762.906921 269.407379,748.637756 
	C250.938156,721.446838 236.828888,691.924805 227.277695,660.442810 
	C223.057877,646.533813 219.941833,632.241333 217.168854,617.959045 
	C215.335464,608.516174 214.820862,598.796448 214.048309,589.174011 
	C213.193451,578.526245 212.481201,567.855042 212.168655,557.180542 
	C211.991089,551.116211 212.737900,545.024780 213.289368,538.112915 
	C213.989990,532.322083 214.502090,527.366699 214.943832,522.405090 
	C217.034592,498.921448 222.060242,476.027374 229.379486,453.671295 
	C240.452225,419.850342 257.016907,388.782623 277.550812,359.788208 
	C282.624359,352.624207 287.817261,345.544800 293.260803,338.003265 
	C294.990906,339.620544 296.343536,340.789001 297.587952,342.063141 
	C308.756653,353.498352 319.863739,364.993958 331.070496,376.391693 
	C354.188995,399.904327 377.357758,423.367615 400.505737,446.851288 
	C423.419891,470.097748 446.334015,493.344208 469.247925,516.590881 
	C492.278778,539.956177 515.309082,563.322021 538.340149,586.687073 
	C561.371277,610.052124 584.384705,633.434509 607.438782,656.776917 
	C641.378540,691.141113 675.364929,725.459229 709.294312,759.833557 
	C721.108093,771.802124 732.722290,783.968689 744.604736,795.867981 
	C750.206665,801.477966 756.226501,806.670593 762.056946,812.052368 
M264.818909,549.710266 
	C264.839661,555.340454 264.851105,560.970642 264.882690,566.600769 
	C265.056183,597.540894 270.534821,627.556763 281.038177,656.616333 
	C301.469482,713.143677 335.720001,759.719604 383.798340,795.638977 
	C423.566010,825.349426 468.139709,844.199158 517.559753,851.337891 
	C543.431641,855.075073 569.293884,856.075623 595.162720,852.714111 
	C629.164062,848.295837 661.394897,837.874756 691.847595,822.061157 
	C693.105652,821.407898 694.259521,820.554016 694.959473,820.111389 
	C688.461060,813.220337 682.202271,806.583435 675.756287,799.265747 
	C672.983398,796.486816 670.196411,793.721802 667.439819,790.926758 
	C644.130676,767.291443 620.827087,743.650696 597.521851,720.011475 
	C574.455200,696.614319 551.386475,673.219116 528.322754,649.819092 
	C505.709686,626.876160 483.107117,603.922913 460.490051,580.983948 
	C436.665741,556.820557 412.863007,532.635864 388.986237,508.524445 
	C374.920166,494.320160 360.729523,480.239166 346.592957,466.104706 
	C339.491913,459.004608 332.286499,452.005463 325.309540,444.785553 
	C317.379761,436.579834 309.652405,428.178467 301.910492,419.940277 
	C279.512299,459.025940 267.714813,500.701843 264.508148,545.446899 
	C264.604889,546.306274 264.701599,547.165588 264.933716,548.455688 
	C264.933716,548.455688 265.020203,548.898865 264.818909,549.710266 
z"/>
<path fill="#B651E1" opacity="1.000000" stroke="none" 
	d="
M910.081116,541.101379 
	C910.387390,547.508362 911.405334,553.975830 910.866394,560.310913 
	C909.257324,579.225952 907.254944,598.114990 904.999573,616.965576 
	C902.444092,638.324829 896.638000,658.975586 888.860596,678.927368 
	C883.637146,692.327637 877.257812,705.375610 870.297607,717.974609 
	C862.466248,732.150513 853.551453,745.740967 844.809998,759.395325 
	C840.353027,766.357361 835.243652,772.901672 831.217529,778.532104 
	C810.992249,758.867615 790.338501,739.058777 769.998962,718.932373 
	C750.638428,699.774841 731.583801,680.307739 712.434753,660.937134 
	C687.925537,636.144348 663.445618,611.322571 638.973572,586.493103 
	C618.361389,565.579773 597.786743,544.629456 577.180481,523.710205 
	C553.715942,499.889343 530.239380,476.080383 506.759735,452.274414 
	C483.318634,428.507507 459.866760,404.751221 436.420715,380.989166 
	C411.002594,355.228577 385.554077,329.497864 360.194702,303.679565 
	C355.030487,298.421875 350.203735,292.832825 345.138947,287.306549 
	C350.372009,283.761566 355.606903,280.215332 361.355347,276.321655 
	C367.916595,272.183929 374.016144,268.473572 380.002838,264.589233 
	C403.580811,249.291061 428.256622,236.160828 455.104309,227.586304 
	C496.117249,214.487732 538.052856,209.077026 581.179199,211.745285 
	C612.137268,213.660675 642.363770,218.832733 671.732422,228.538406 
	C718.217957,243.900848 759.788940,268.068695 796.121338,300.857635 
	C826.958313,328.687164 851.603577,361.435425 871.035767,398.167450 
	C894.714478,442.926331 907.243896,490.676544 910.081116,541.101379 
M858.059631,543.088440 
	C857.375061,536.408630 856.577026,529.738037 856.028259,523.047119 
	C854.667480,506.457184 850.926270,490.375580 846.180115,474.466278 
	C839.383057,451.682495 829.932312,430.096985 817.947693,409.565002 
	C805.631775,388.465363 790.842651,369.238159 774.008179,351.628571 
	C759.037964,335.969055 742.296265,322.275238 723.736084,311.098846 
	C709.562195,302.563721 695.233643,294.017700 680.156921,287.313934 
	C658.991028,277.902771 636.847778,270.909668 613.695374,267.934479 
	C599.596008,266.122681 585.490051,264.082214 571.321167,263.187195 
	C561.293152,262.553711 551.156616,263.859283 541.065247,263.955719 
	C524.454773,264.114441 508.305939,267.401398 492.265076,271.122894 
	C476.650757,274.745392 461.347748,279.490997 446.368500,287.137146 
	C440.208679,290.168823 434.048859,293.200500 426.828979,296.753876 
	C559.071838,430.930969 690.216736,563.994080 821.745117,697.446289 
	C823.093567,695.408569 823.958923,694.227783 824.693970,692.970764 
	C835.706787,674.137390 843.512512,653.998718 848.974243,632.925171 
	C854.548035,611.419189 857.563110,589.497620 858.801819,567.359863 
	C859.235779,559.603516 858.410828,551.776733 858.059631,543.088440 
z"/>
<path fill="#8C20BA" opacity="1.000000" stroke="none" 
	d="
M762.373901,811.916504 
	C756.226501,806.670593 750.206665,801.477966 744.604736,795.867981 
	C732.722290,783.968689 721.108093,771.802124 709.294312,759.833557 
	C675.364929,725.459229 641.378540,691.141113 607.438782,656.776917 
	C584.384705,633.434509 561.371277,610.052124 538.340149,586.687073 
	C515.309082,563.322021 492.278778,539.956177 469.247925,516.590881 
	C446.334015,493.344208 423.419891,470.097748 400.505737,446.851288 
	C377.357758,423.367615 354.188995,399.904327 331.070496,376.391693 
	C319.863739,364.993958 308.756653,353.498352 297.587952,342.063141 
	C296.343536,340.789001 294.990906,339.620544 293.260803,338.003265 
	C287.817261,345.544800 282.624359,352.624207 277.550812,359.788208 
	C257.016907,388.782623 240.452225,419.850342 229.379486,453.671295 
	C222.060242,476.027374 217.034592,498.921448 214.943832,522.405090 
	C214.502090,527.366699 213.989990,532.322083 213.337784,537.648071 
	C213.768753,522.122498 214.019806,506.206177 215.055832,490.341095 
	C216.739792,464.554047 223.383865,439.775116 232.070877,415.581085 
	C242.783981,385.744263 257.375427,357.884735 276.161621,332.263062 
	C281.951935,324.365875 287.360718,316.188904 293.406433,307.473694 
	C300.672028,315.215424 307.544525,322.542969 314.424469,329.863464 
	C315.336548,330.833923 316.278625,331.776672 317.220459,332.718597 
	C337.364380,352.863770 357.571869,372.945831 377.639923,393.166290 
	C402.375153,418.089417 427.006226,443.115997 451.660400,468.119415 
	C473.908936,490.683167 496.118469,513.285400 518.362732,535.853271 
	C541.760315,559.591248 565.188049,583.299561 588.585510,607.037659 
	C610.466919,629.237549 632.321045,651.464417 654.195923,673.670776 
	C676.955872,696.775696 699.741028,719.855774 722.487366,742.974060 
	C740.202759,760.979065 757.801758,779.099426 775.637451,796.984070 
	C778.700500,800.055542 778.289856,801.556335 774.901917,803.611572 
	C770.718994,806.149048 766.751465,809.041504 762.373901,811.916504 
z"/>
<path fill="#8C20BA" opacity="1.000000" stroke="none" 
	d="
M910.425537,540.836670 
	C907.243896,490.676544 894.714478,442.926331 871.035767,398.167450 
	C851.603577,361.435425 826.958313,328.687164 796.121338,300.857635 
	C759.788940,268.068695 718.217957,243.900848 671.732422,228.538406 
	C642.363770,218.832733 612.137268,213.660675 581.179199,211.745285 
	C538.052856,209.077026 496.117249,214.487732 455.104309,227.586304 
	C428.256622,236.160828 403.580811,249.291061 380.002838,264.589233 
	C374.016144,268.473572 367.916595,272.183929 361.516357,276.008362 
	C355.888489,270.144379 350.613159,264.246307 344.502869,257.414673 
	C366.551086,243.972336 388.333160,230.534561 410.273834,217.360977 
	C431.199860,204.796600 454.337860,197.557831 477.677734,191.429520 
	C492.002258,187.668335 506.996918,186.496887 521.656677,183.965683 
	C541.783508,180.490479 562.093689,181.712479 582.265503,182.297302 
	C597.090942,182.727112 611.857910,185.737350 626.614685,187.850433 
	C651.832275,191.461441 675.951843,199.264893 699.166748,209.322678 
	C715.443726,216.374573 731.102417,225.074677 746.399475,234.117584 
	C772.476562,249.533188 795.686401,268.757080 816.319641,290.925476 
	C834.121643,310.051971 849.789734,330.841125 862.881897,353.524078 
	C876.082825,376.395416 887.286377,400.146240 895.145081,425.407928 
	C900.684692,443.214935 904.796448,461.303894 907.155396,479.844482 
	C909.723206,500.027374 911.648621,520.204346 910.425537,540.836670 
z"/>
<path fill="#000000" opacity="1.000000" stroke="none" 
	d="
M264.822510,544.988586 
	C267.714813,500.701843 279.512299,459.025940 301.910492,419.940277 
	C309.652405,428.178467 317.379761,436.579834 325.309540,444.785553 
	C332.286499,452.005463 339.491913,459.004608 346.592957,466.104706 
	C360.729523,480.239166 374.920166,494.320160 388.986237,508.524445 
	C412.863007,532.635864 436.665741,556.820557 460.490051,580.983948 
	C483.107117,603.922913 505.709686,626.876160 528.322754,649.819092 
	C551.386475,673.219116 574.455200,696.614319 597.521851,720.011475 
	C620.827087,743.650696 644.130676,767.291443 667.439819,790.926758 
	C670.196411,793.721802 672.983398,796.486816 675.518860,799.749329 
	C658.542603,808.030823 641.253967,814.396729 623.122070,817.868652 
	C607.718628,820.818237 592.171509,823.750732 576.565552,824.719849 
	C557.789429,825.885925 538.942932,824.994751 520.160217,822.215393 
	C504.597382,819.912537 489.311157,816.830688 474.355927,812.081177 
	C452.664734,805.192688 431.974640,796.119385 412.165527,784.782410 
	C392.243988,773.381165 373.986725,759.774292 357.715912,743.833984 
	C345.281494,731.652039 334.073669,718.112366 323.176056,704.491882 
	C305.876007,682.869263 293.257263,658.458130 283.356567,632.672974 
	C274.709625,610.153076 269.162537,586.859741 266.948120,562.796387 
	C266.520020,558.144104 265.673615,553.530396 265.020203,548.898865 
	C265.020203,548.898865 264.933716,548.455688 264.952087,547.865601 
	C264.921143,546.513184 264.871826,545.750916 264.822510,544.988586 
z"/>
<path fill="#8C20BA" opacity="1.000000" stroke="none" 
	d="
M264.919556,549.304565 
	C265.673615,553.530396 266.520020,558.144104 266.948120,562.796387 
	C269.162537,586.859741 274.709625,610.153076 283.356567,632.672974 
	C293.257263,658.458130 305.876007,682.869263 323.176056,704.491882 
	C334.073669,718.112366 345.281494,731.652039 357.715912,743.833984 
	C373.986725,759.774292 392.243988,773.381165 412.165527,784.782410 
	C431.974640,796.119385 452.664734,805.192688 474.355927,812.081177 
	C489.311157,816.830688 504.597382,819.912537 520.160217,822.215393 
	C538.942932,824.994751 557.789429,825.885925 576.565552,824.719849 
	C592.171509,823.750732 607.718628,820.818237 623.122070,817.868652 
	C641.253967,814.396729 658.542603,808.030823 675.612488,800.089722 
	C682.202271,806.583435 688.461060,813.220337 694.959473,820.111389 
	C694.259521,820.554016 693.105652,821.407898 691.847595,822.061157 
	C661.394897,837.874756 629.164062,848.295837 595.162720,852.714111 
	C569.293884,856.075623 543.431641,855.075073 517.559753,851.337891 
	C468.139709,844.199158 423.566010,825.349426 383.798340,795.638977 
	C335.720001,759.719604 301.469482,713.143677 281.038177,656.616333 
	C270.534821,627.556763 265.056183,597.540894 264.882690,566.600769 
	C264.851105,560.970642 264.839661,555.340454 264.919556,549.304565 
z"/>
<path fill="#A33AD0" opacity="1.000000" stroke="none" 
	d="
M264.665344,545.217773 
	C264.871826,545.750916 264.921143,546.513184 264.884399,547.650269 
	C264.701599,547.165588 264.604889,546.306274 264.665344,545.217773 
z"/>
<path fill="#000000" opacity="1.000000" stroke="none" 
	d="
M447.099243,287.092743 
	C461.347748,279.490997 476.650757,274.745392 492.265076,271.122894 
	C508.305939,267.401398 524.454773,264.114441 541.065247,263.955719 
	C551.156616,263.859283 561.293152,262.553711 571.321167,263.187195 
	C585.490051,264.082214 599.596008,266.122681 613.695374,267.934479 
	C636.847778,270.909668 658.991028,277.902771 680.156921,287.313934 
	C695.233643,294.017700 709.562195,302.563721 723.736084,311.098846 
	C742.296265,322.275238 759.037964,335.969055 774.008179,351.628571 
	C790.842651,369.238159 805.631775,388.465363 817.947693,409.565002 
	C829.932312,430.096985 839.383057,451.682495 846.180115,474.466278 
	C850.926270,490.375580 854.667480,506.457184 856.028259,523.047119 
	C856.577026,529.738037 857.375061,536.408630 858.020569,543.962891 
	C854.221802,587.990479 845.340820,629.622070 821.511597,668.057007 
	C819.954285,666.073914 818.947083,664.508972 817.670715,663.208252 
	C797.352844,642.503906 777.010132,621.823853 756.653625,601.157471 
	C733.384644,577.534180 710.094788,553.931519 686.816711,530.317200 
	C663.656372,506.822510 640.498169,483.325623 617.341370,459.827423 
	C595.498718,437.662720 573.659241,415.494873 551.817871,393.328888 
	C529.171387,370.345856 506.526276,347.361450 483.876678,324.381500 
	C471.621704,311.947815 459.358643,299.522064 447.099243,287.092743 
z"/>
<path fill="#8C20BA" opacity="1.000000" stroke="none" 
	d="
M446.733887,287.114929 
	C459.358643,299.522064 471.621704,311.947815 483.876678,324.381500 
	C506.526276,347.361450 529.171387,370.345856 551.817871,393.328888 
	C573.659241,415.494873 595.498718,437.662720 617.341370,459.827423 
	C640.498169,483.325623 663.656372,506.822510 686.816711,530.317200 
	C710.094788,553.931519 733.384644,577.534180 756.653625,601.157471 
	C777.010132,621.823853 797.352844,642.503906 817.670715,663.208252 
	C818.947083,664.508972 819.954285,666.073914 821.511597,668.057007 
	C845.340820,629.622070 854.221802,587.990479 858.071106,544.409790 
	C858.410828,551.776733 859.235779,559.603516 858.801819,567.359863 
	C857.563110,589.497620 854.548035,611.419189 848.974243,632.925171 
	C843.512512,653.998718 835.706787,674.137390 824.693970,692.970764 
	C823.958923,694.227783 823.093567,695.408569 821.745117,697.446289 
	C690.216736,563.994080 559.071838,430.930969 426.828979,296.753876 
	C434.048859,293.200500 440.208679,290.168823 446.733887,287.114929 
z"/>
</svg>